<?xml version="1.0" encoding="UTF-8" standalone="no"?>
<!DOCTYPE svg PUBLIC "-//W3C//DTD SVG 1.1//EN"
 "http://www.w3.org/Graphics/SVG/1.1/DTD/svg11.dtd">
<!-- Generated by graphviz version 5.0.0 (20220707.1540)
 -->
<!-- Title: dependencies Pages: 1 -->
<svg width="318pt" height="174pt"
 viewBox="0.00 0.00 318.00 173.80" xmlns="http://www.w3.org/2000/svg" xmlns:xlink="http://www.w3.org/1999/xlink">
<g id="graph0" class="graph" transform="scale(1 1) rotate(0) translate(4 169.8)">
<title>dependencies</title>
<polygon fill="white" stroke="transparent" points="-4,4 -4,-169.8 314,-169.8 314,4 -4,4"/>
<text text-anchor="middle" x="155" y="-8.2" font-family="sans-serif" font-size="14.00">dependencies</text>
<g id="clust1" class="cluster">
<title>cluster_BoardModule</title>
<polygon fill="none" stroke="black" stroke-dasharray="1,5" points="8,-32.8 8,-157.8 302,-157.8 302,-32.8 8,-32.8"/>
</g>
<g id="clust6" class="cluster">
<title>cluster_BoardModule_providers</title>
<polygon fill="none" stroke="black" points="150,-40.8 150,-92.8 294,-92.8 294,-40.8 150,-40.8"/>
</g>
<g id="clust3" class="cluster">
<title>cluster_BoardModule_imports</title>
<polygon fill="none" stroke="black" points="16,-40.8 16,-92.8 142,-92.8 142,-40.8 16,-40.8"/>
</g>
<!-- DatabaseModule -->
<g id="node1" class="node">
<title>DatabaseModule</title>
<polygon fill="#8dd3c7" stroke="black" points="134.36,-84.8 131.36,-88.8 110.36,-88.8 107.36,-84.8 23.64,-84.8 23.64,-48.8 134.36,-48.8 134.36,-84.8"/>
<text text-anchor="middle" x="79" y="-62.6" font-family="Times,serif" font-size="14.00">DatabaseModule</text>
</g>
<!-- BoardModule -->
<g id="node2" class="node">
<title>BoardModule</title>
<polygon fill="#8dd3c7" stroke="black" points="196.77,-149.8 193.77,-153.8 172.77,-153.8 169.77,-149.8 103.23,-149.8 103.23,-113.8 196.77,-113.8 196.77,-149.8"/>
<text text-anchor="middle" x="150" y="-127.6" font-family="Times,serif" font-size="14.00">BoardModule</text>
</g>
<!-- DatabaseModule&#45;&gt;BoardModule -->
<g id="edge1" class="edge">
<title>DatabaseModule&#45;&gt;BoardModule</title>
<path fill="none" stroke="black" d="M118.77,-84.91C118.77,-84.91 118.77,-103.79 118.77,-103.79"/>
<polygon fill="black" stroke="black" points="115.27,-103.79 118.77,-113.79 122.27,-103.79 115.27,-103.79"/>
</g>
<!-- BoardService -->
<g id="node3" class="node">
<title>BoardService</title>
<ellipse fill="#fdb462" stroke="black" cx="222" cy="-66.8" rx="63.69" ry="18"/>
<text text-anchor="middle" x="222" y="-62.6" font-family="Times,serif" font-size="14.00">BoardService</text>
</g>
<!-- BoardService&#45;&gt;BoardModule -->
<g id="edge2" class="edge">
<title>BoardService&#45;&gt;BoardModule</title>
<path fill="none" stroke="black" d="M177.64,-79.95C177.64,-79.95 177.64,-103.49 177.64,-103.49"/>
<polygon fill="black" stroke="black" points="174.14,-103.49 177.64,-113.49 181.14,-103.49 174.14,-103.49"/>
</g>
</g>
</svg>
