<?xml version="1.0" encoding="UTF-8" standalone="no"?>
<!DOCTYPE svg PUBLIC "-//W3C//DTD SVG 1.1//EN"
 "http://www.w3.org/Graphics/SVG/1.1/DTD/svg11.dtd">
<!-- Generated by graphviz version 5.0.0 (20220707.1540)
 -->
<!-- Title: dependencies Pages: 1 -->
<svg width="288pt" height="174pt"
 viewBox="0.00 0.00 288.00 173.80" xmlns="http://www.w3.org/2000/svg" xmlns:xlink="http://www.w3.org/1999/xlink">
<g id="graph0" class="graph" transform="scale(1 1) rotate(0) translate(4 169.8)">
<title>dependencies</title>
<polygon fill="white" stroke="transparent" points="-4,4 -4,-169.8 284,-169.8 284,4 -4,4"/>
<text text-anchor="middle" x="140" y="-8.2" font-family="sans-serif" font-size="14.00">dependencies</text>
<g id="clust1" class="cluster">
<title>cluster_AppModule</title>
<polygon fill="none" stroke="black" stroke-dasharray="1,5" points="8,-32.8 8,-157.8 272,-157.8 272,-32.8 8,-32.8"/>
</g>
<g id="clust3" class="cluster">
<title>cluster_AppModule_imports</title>
<polygon fill="none" stroke="black" points="154,-40.8 154,-92.8 264,-92.8 264,-40.8 154,-40.8"/>
</g>
<g id="clust6" class="cluster">
<title>cluster_AppModule_providers</title>
<polygon fill="none" stroke="black" points="16,-40.8 16,-92.8 146,-92.8 146,-40.8 16,-40.8"/>
</g>
<!-- BoardModule -->
<g id="node1" class="node">
<title>BoardModule</title>
<polygon fill="#8dd3c7" stroke="black" points="255.77,-84.8 252.77,-88.8 231.77,-88.8 228.77,-84.8 162.23,-84.8 162.23,-48.8 255.77,-48.8 255.77,-84.8"/>
<text text-anchor="middle" x="209" y="-62.6" font-family="Times,serif" font-size="14.00">BoardModule</text>
</g>
<!-- AppModule -->
<g id="node2" class="node">
<title>AppModule</title>
<polygon fill="#8dd3c7" stroke="black" points="186.66,-149.8 183.66,-153.8 162.66,-153.8 159.66,-149.8 103.34,-149.8 103.34,-113.8 186.66,-113.8 186.66,-149.8"/>
<text text-anchor="middle" x="145" y="-127.6" font-family="Times,serif" font-size="14.00">AppModule</text>
</g>
<!-- BoardModule&#45;&gt;AppModule -->
<g id="edge1" class="edge">
<title>BoardModule&#45;&gt;AppModule</title>
<path fill="none" stroke="black" d="M174.47,-84.91C174.47,-84.91 174.47,-103.79 174.47,-103.79"/>
<polygon fill="black" stroke="black" points="170.97,-103.79 174.47,-113.79 177.97,-103.79 170.97,-103.79"/>
</g>
<!-- AppService -->
<g id="node3" class="node">
<title>AppService</title>
<ellipse fill="#fdb462" stroke="black" cx="81" cy="-66.8" rx="56.75" ry="18"/>
<text text-anchor="middle" x="81" y="-62.6" font-family="Times,serif" font-size="14.00">AppService</text>
</g>
<!-- AppService&#45;&gt;AppModule -->
<g id="edge2" class="edge">
<title>AppService&#45;&gt;AppModule</title>
<path fill="none" stroke="black" d="M120.4,-79.95C120.4,-79.95 120.4,-103.49 120.4,-103.49"/>
<polygon fill="black" stroke="black" points="116.9,-103.49 120.4,-113.49 123.9,-103.49 116.9,-103.49"/>
</g>
</g>
</svg>
