<?xml version="1.0" encoding="UTF-8" standalone="no"?>
<!DOCTYPE svg PUBLIC "-//W3C//DTD SVG 1.1//EN"
 "http://www.w3.org/Graphics/SVG/1.1/DTD/svg11.dtd">
<!-- Generated by graphviz version 5.0.0 (20220707.1540)
 -->
<!-- Title: dependencies Pages: 1 -->
<svg width="337pt" height="250pt"
 viewBox="0.00 0.00 337.00 249.80" xmlns="http://www.w3.org/2000/svg" xmlns:xlink="http://www.w3.org/1999/xlink">
<g id="graph0" class="graph" transform="scale(1 1) rotate(0) translate(4 245.8)">
<title>dependencies</title>
<polygon fill="white" stroke="transparent" points="-4,4 -4,-245.8 333,-245.8 333,4 -4,4"/>
<text text-anchor="middle" x="164.5" y="-8.2" font-family="sans-serif" font-size="14.00">dependencies</text>
<g id="clust1" class="cluster">
<title>cluster_AppModule</title>
<polygon fill="none" stroke="black" stroke-dasharray="1,5" points="8,-108.8 8,-233.8 272,-233.8 272,-108.8 8,-108.8"/>
</g>
<g id="clust3" class="cluster">
<title>cluster_AppModule_imports</title>
<polygon fill="none" stroke="black" points="154,-116.8 154,-168.8 264,-168.8 264,-116.8 154,-116.8"/>
</g>
<g id="clust6" class="cluster">
<title>cluster_AppModule_providers</title>
<polygon fill="none" stroke="black" points="16,-116.8 16,-168.8 146,-168.8 146,-116.8 16,-116.8"/>
</g>
<g id="clust7" class="cluster">
<title>cluster_BoardModule</title>
<polygon fill="none" stroke="black" stroke-dasharray="1,5" points="27,-32.8 27,-100.8 321,-100.8 321,-32.8 27,-32.8"/>
</g>
<g id="clust9" class="cluster">
<title>cluster_BoardModule_imports</title>
<polygon fill="none" stroke="black" points="187,-40.8 187,-92.8 313,-92.8 313,-40.8 187,-40.8"/>
</g>
<g id="clust12" class="cluster">
<title>cluster_BoardModule_providers</title>
<polygon fill="none" stroke="black" points="35,-40.8 35,-92.8 179,-92.8 179,-40.8 35,-40.8"/>
</g>
<!-- BoardModule -->
<g id="node1" class="node">
<title>BoardModule</title>
<polygon fill="#8dd3c7" stroke="black" points="255.77,-160.8 252.77,-164.8 231.77,-164.8 228.77,-160.8 162.23,-160.8 162.23,-124.8 255.77,-124.8 255.77,-160.8"/>
<text text-anchor="middle" x="209" y="-138.6" font-family="Times,serif" font-size="14.00">BoardModule</text>
</g>
<!-- AppModule -->
<g id="node2" class="node">
<title>AppModule</title>
<polygon fill="#8dd3c7" stroke="black" points="186.66,-225.8 183.66,-229.8 162.66,-229.8 159.66,-225.8 103.34,-225.8 103.34,-189.8 186.66,-189.8 186.66,-225.8"/>
<text text-anchor="middle" x="145" y="-203.6" font-family="Times,serif" font-size="14.00">AppModule</text>
</g>
<!-- BoardModule&#45;&gt;AppModule -->
<g id="edge1" class="edge">
<title>BoardModule&#45;&gt;AppModule</title>
<path fill="none" stroke="black" d="M174.47,-160.91C174.47,-160.91 174.47,-179.79 174.47,-179.79"/>
<polygon fill="black" stroke="black" points="170.97,-179.79 174.47,-189.79 177.97,-179.79 170.97,-179.79"/>
</g>
<!-- AppService -->
<g id="node3" class="node">
<title>AppService</title>
<ellipse fill="#fdb462" stroke="black" cx="81" cy="-142.8" rx="56.75" ry="18"/>
<text text-anchor="middle" x="81" y="-138.6" font-family="Times,serif" font-size="14.00">AppService</text>
</g>
<!-- AppService&#45;&gt;AppModule -->
<g id="edge2" class="edge">
<title>AppService&#45;&gt;AppModule</title>
<path fill="none" stroke="black" d="M120.4,-155.95C120.4,-155.95 120.4,-179.49 120.4,-179.49"/>
<polygon fill="black" stroke="black" points="116.9,-179.49 120.4,-189.49 123.9,-179.49 116.9,-179.49"/>
</g>
<!-- DatabaseModule -->
<g id="node4" class="node">
<title>DatabaseModule</title>
<polygon fill="#8dd3c7" stroke="black" points="305.36,-84.8 302.36,-88.8 281.36,-88.8 278.36,-84.8 194.64,-84.8 194.64,-48.8 305.36,-48.8 305.36,-84.8"/>
<text text-anchor="middle" x="250" y="-62.6" font-family="Times,serif" font-size="14.00">DatabaseModule</text>
</g>
<!-- DatabaseModule&#45;&gt;BoardModule -->
<g id="edge3" class="edge">
<title>DatabaseModule&#45;&gt;BoardModule</title>
<path fill="none" stroke="black" d="M225.23,-84.81C225.23,-84.81 225.23,-114.65 225.23,-114.65"/>
<polygon fill="black" stroke="black" points="221.73,-114.65 225.23,-124.65 228.73,-114.65 221.73,-114.65"/>
</g>
<!-- BoardService -->
<g id="node5" class="node">
<title>BoardService</title>
<ellipse fill="#fdb462" stroke="black" cx="107" cy="-66.8" rx="63.69" ry="18"/>
<text text-anchor="middle" x="107" y="-62.6" font-family="Times,serif" font-size="14.00">BoardService</text>
</g>
<!-- BoardService&#45;&gt;BoardModule -->
<g id="edge4" class="edge">
<title>BoardService&#45;&gt;BoardModule</title>
<path fill="none" stroke="black" d="M166.36,-73.28C166.36,-73.28 166.36,-114.71 166.36,-114.71"/>
<polygon fill="black" stroke="black" points="162.86,-114.71 166.36,-124.71 169.86,-114.71 162.86,-114.71"/>
</g>
</g>
</svg>
